<?xml version="1.0" encoding="UTF-8"?>
<svg width="200" height="200" viewBox="0 0 200 200" xmlns="http://www.w3.org/2000/svg">
  <title>Public Domain Superhero</title>
  <desc>Original superhero vector, inspired by classic comic style, not based on Marvel or DC IP. Free for use and modification. Source: https://pdsh.fandom.com/wiki/Public_Domain_Super_Heroes</desc>
  <g>
    <ellipse cx="100" cy="170" rx="40" ry="15" fill="#bbb"/>
    <circle cx="100" cy="70" r="40" fill="#ffe0b2" stroke="#333" stroke-width="2"/>
    <rect x="70" y="110" width="60" height="50" rx="20" fill="#1976d2" stroke="#333" stroke-width="2"/>
    <rect x="85" y="160" width="30" height="20" rx="10" fill="#1976d2" stroke="#333" stroke-width="2"/>
    <rect x="60" y="120" width="20" height="40" rx="8" fill="#e53935" stroke="#333" stroke-width="2"/>
    <rect x="120" y="120" width="20" height="40" rx="8" fill="#e53935" stroke="#333" stroke-width="2"/>
    <polygon points="100,90 120,130 80,130" fill="#fff176" stroke="#333" stroke-width="2"/>
    <ellipse cx="100" cy="60" rx="18" ry="10" fill="#fff"/>
    <ellipse cx="90" cy="60" rx="3" ry="4" fill="#333"/>
    <ellipse cx="110" cy="60" rx="3" ry="4" fill="#333"/>
    <path d="M92 75 Q100 85 108 75" stroke="#333" stroke-width="2" fill="none"/>
    <path d="M100 110 Q100 120 90 120" stroke="#333" stroke-width="2" fill="none"/>
    <path d="M100 110 Q100 120 110 120" stroke="#333" stroke-width="2" fill="none"/>
    <polygon points="100,40 120,70 80,70" fill="#fff176" stroke="#333" stroke-width="2"/>
    <text x="100" y="195" font-size="10" text-anchor="middle" fill="#333">Public Domain Superhero</text>
  </g>
</svg>